<svg xmlns="http://www.w3.org/2000/svg" width="1200" height="760" viewBox="0 0 1200 760">
  <rect width="1200" height="760" fill="#f7f2e8"/>
  <rect x="48" y="48" width="1104" height="664" rx="28" fill="#ffffff" stroke="#d8c9aa" stroke-width="3"/>
  <circle cx="112" cy="112" r="42" fill="#b69446"/>
  <text x="112" y="127" text-anchor="middle" font-family="Hiragino Sans, Yu Gothic, sans-serif" font-size="34" font-weight="700" fill="#ffffff">3</text>
  <text x="178" y="126" font-family="Hiragino Sans, Yu Gothic, sans-serif" font-size="42" font-weight="800" fill="#153f2a">内容・条件整理</text>
  <text x="178" y="174" font-family="Hiragino Sans, Yu Gothic, sans-serif" font-size="24" fill="#5b625c">申し込む前に知りたい条件を、ひと目で確認できます。</text>
  <line x1="80" y1="216" x2="1120" y2="216" stroke="#d8c9aa" stroke-width="2"/>
  <g font-family="Hiragino Sans, Yu Gothic, sans-serif">
    <rect x="94" y="254" width="1012" height="78" rx="14" fill="#f8faf7" stroke="#d8c9aa"/>
    <text x="132" y="304" font-size="26" font-weight="800" fill="#153f2a">内容</text>
    <text x="360" y="304" font-size="29" font-weight="800" fill="#1d211f">1泊2食付ペア宿泊券</text>
    <rect x="94" y="348" width="1012" height="78" rx="14" fill="#ffffff" stroke="#d8c9aa"/>
    <text x="132" y="398" font-size="26" font-weight="800" fill="#153f2a">ご利用人数</text>
    <text x="360" y="398" font-size="29" font-weight="800" fill="#1d211f">2名様</text>
    <rect x="94" y="442" width="1012" height="78" rx="14" fill="#f8faf7" stroke="#d8c9aa"/>
    <text x="132" y="492" font-size="26" font-weight="800" fill="#153f2a">有効期限</text>
    <text x="360" y="492" font-size="29" font-weight="800" fill="#1d211f">発行日より1年間</text>
    <rect x="94" y="536" width="1012" height="78" rx="14" fill="#ffffff" stroke="#d8c9aa"/>
    <text x="132" y="586" font-size="26" font-weight="800" fill="#153f2a">発送目安</text>
    <text x="360" y="586" font-size="29" font-weight="800" fill="#1d211f">ご入金確認後、2週間以内に発送</text>
    <rect x="94" y="630" width="1012" height="46" rx="14" fill="#153f2a"/>
    <text x="132" y="661" font-size="21" font-weight="700" fill="#ffffff">除外日：年末年始・GW・お盆など。詳細はお申し込み後にご案内します。</text>
  </g>
</svg>
